<svg viewBox="0 0 153 78" fill="none" xmlns="http://www.w3.org/2000/svg">
<path fill-rule="evenodd" clip-rule="evenodd" d="M91.8484 53.1518C84.4534 58.6483 73.7001 61.5833 64.4538 61.5833C51.4896 61.5833 39.817 56.7579 30.9876 48.7294C30.294 48.098 30.9149 47.2382 31.7475 47.7284C41.2768 53.3109 53.0591 56.6668 65.229 56.6668C73.4374 56.6668 82.467 54.9574 90.7698 51.4103C92.0244 50.8738 93.0724 52.2367 91.8459 53.153L91.8484 53.1518ZM94.9288 49.6059C93.9853 48.3867 88.6813 49.031 86.2818 49.3159C85.555 49.4057 85.4441 48.7679 86.0982 48.3097C90.3312 45.3093 97.2799 46.1756 98.0921 47.1804C98.9043 48.1853 97.8817 55.2012 93.9025 58.5482C93.2905 59.0615 92.7091 58.7882 92.9806 58.1067C93.8731 55.8609 95.8774 50.8276 94.9288 49.6046" fill="#FF9900"/>
<path fill-rule="evenodd" clip-rule="evenodd" d="M86.4488 27.1308V24.2151C86.4462 24.1175 86.4633 24.0203 86.4993 23.9296C86.5352 23.8389 86.5891 23.7565 86.6577 23.6874C86.7263 23.6183 86.8082 23.5641 86.8983 23.5279C86.9884 23.4918 87.085 23.4745 87.1819 23.4772H100.151C100.567 23.4772 100.901 23.7787 100.901 24.2151V26.7112C100.896 27.1295 100.544 27.6775 99.9243 28.5438L93.205 38.2021C95.704 38.1405 98.3382 38.5153 100.603 39.7999C101.113 40.0899 101.24 40.5147 101.291 40.9343V44.0464C101.291 44.4699 100.824 44.9679 100.335 44.7112C96.3441 42.6065 91.0439 42.3755 86.6324 44.733C86.1824 44.9794 85.7106 44.4866 85.7106 44.0631V41.1076C85.7106 40.6328 85.7157 39.8243 86.1874 39.1017L93.9739 27.8623H87.21C86.7943 27.8623 86.4603 27.5671 86.4603 27.1308H86.4488ZM39.1348 45.3259H35.19C34.8126 45.2977 34.5142 45.0128 34.4849 44.6496V24.2651C34.4849 23.857 34.8241 23.5336 35.2448 23.5336H38.9245C39.307 23.5503 39.613 23.8468 39.641 24.2138V26.878H39.7137C40.6738 24.3023 42.4779 23.1011 44.9081 23.1011C47.3777 23.1011 48.9205 24.3023 50.031 26.878C50.9873 24.3023 53.1547 23.1011 55.4816 23.1011C57.1353 23.1011 58.9445 23.7877 60.0487 25.3303C61.2982 27.0448 61.0432 29.5371 61.0432 31.7213L61.0342 44.588C61.0342 44.9961 60.6951 45.3259 60.2743 45.3259H56.3218C55.9394 45.2977 55.6117 44.9794 55.6117 44.588V33.7695C55.6117 32.9097 55.6882 30.7639 55.5007 29.949C55.2075 28.581 54.3239 28.1947 53.1802 28.1947C52.224 28.1947 51.227 28.8364 50.8215 29.8656C50.416 30.8948 50.4556 32.6145 50.4556 33.7708V44.5764C50.4556 44.9845 50.1164 45.3144 49.6957 45.3144H45.7432C45.3441 45.2861 45.033 44.9679 45.033 44.5764L45.0279 33.7708C45.0279 31.4967 45.4002 28.1498 42.5965 28.1498C39.7609 28.1498 39.8718 31.412 39.8718 33.7708V44.5764C39.8718 44.9845 39.5326 45.3144 39.1119 45.3144L39.1348 45.3259ZM112.067 23.1178C117.922 23.1178 121.092 28.1793 121.092 34.6139C121.092 40.8317 117.589 45.7635 112.067 45.7635C106.33 45.7635 103.187 40.7021 103.187 34.3958C103.187 28.0497 106.357 23.1024 112.067 23.1024V23.1178ZM112.101 27.2643C109.194 27.2643 109.009 31.2529 109.009 33.7387C109.009 36.2245 108.97 41.5478 112.066 41.5478C115.124 41.5478 115.269 37.2576 115.269 34.6434C115.269 32.9238 115.196 30.8666 114.682 29.2355C114.239 27.8161 113.356 27.263 112.102 27.263L112.101 27.2643ZM128.686 45.3259H124.756C124.374 45.2977 124.046 44.9794 124.046 44.588L124.041 24.1984C124.074 23.8237 124.402 23.5336 124.801 23.5336H128.46C128.804 23.5503 129.087 23.7852 129.165 24.1034V27.2219H129.238C130.342 24.4345 131.89 23.105 134.616 23.105C136.401 23.105 138.112 23.7467 139.222 25.5074C140.242 27.1372 140.242 29.881 140.242 31.8535V44.6868C140.198 45.0461 139.87 45.3285 139.482 45.3285H135.533C135.172 45.3002 134.872 45.0333 134.834 44.6868V33.6155C134.834 31.3863 135.089 28.1228 132.364 28.1228C131.404 28.1228 130.522 28.7709 130.069 29.7527C129.514 30.9975 129.442 32.2385 129.442 33.6129V44.5906C129.437 44.9987 129.092 45.3285 128.67 45.3285L128.686 45.3259ZM76.1086 35.5751C76.1086 37.1228 76.1468 38.3985 75.3691 39.787C74.7418 40.9035 73.7435 41.5914 72.638 41.5914C71.1233 41.5914 70.2346 40.43 70.2346 38.7142C70.2346 35.3287 73.2488 34.714 76.106 34.714V35.5739L76.1086 35.5751ZM80.084 45.2553C79.8226 45.4902 79.4465 45.5069 79.1533 45.3503C77.8438 44.2556 77.6054 43.7461 76.8889 42.7028C74.7239 44.9255 73.1875 45.5903 70.3838 45.5903C67.0599 45.5903 64.478 43.5292 64.478 39.4008C64.478 36.177 66.2095 33.9825 68.6855 32.9097C70.8275 31.96 73.8187 31.7932 76.106 31.5301V31.0167C76.106 30.0722 76.1787 28.9557 75.6215 28.1395C75.1447 27.408 74.2229 27.1064 73.4068 27.1064C71.9024 27.1064 70.5636 27.8828 70.2372 29.4934C70.1709 29.8528 69.9095 30.2031 69.5487 30.2198L65.7237 29.8066C65.4024 29.7334 65.0416 29.4729 65.1372 28.9724C66.0144 24.3011 70.2117 22.8945 73.9602 22.8945C75.8803 22.8945 78.3895 23.4079 79.9042 24.8709C81.8244 26.6752 81.6408 29.0828 81.6408 31.7033V37.8928C81.6408 39.7537 82.4058 40.5686 83.1287 41.576C83.3786 41.9353 83.4347 42.364 83.1121 42.6322L80.0955 45.281L80.0904 45.2682L80.084 45.2553ZM24.378 35.588C24.378 37.1357 24.4163 38.4113 23.6385 39.7999C23.0112 40.9164 22.0193 41.6042 20.9075 41.6042C19.3928 41.6042 18.5104 40.4428 18.5104 38.727C18.5104 35.3416 21.5245 34.7269 24.3755 34.7269V35.5867L24.378 35.588ZM28.3535 45.2682C28.0921 45.503 27.7159 45.5197 27.4227 45.3631C26.1133 44.2684 25.8927 43.759 25.1583 42.7156C22.9934 44.9383 21.4608 45.6031 18.6533 45.6031C15.3357 45.6044 12.75 43.5434 12.75 39.4162C12.75 36.1924 14.4866 33.9979 16.9575 32.9251C19.0995 31.9754 22.0907 31.8086 24.378 31.5455V31.0321C24.378 30.0876 24.4507 28.9711 23.9011 28.1549C23.4166 27.4234 22.4987 27.1218 21.6865 27.1218C20.182 27.1218 18.8394 27.8982 18.499 29.5088C18.4327 29.8682 18.1713 30.2185 17.8168 30.2352L13.9868 29.822C13.6655 29.7488 13.311 29.4883 13.4003 28.9878C14.2826 24.3165 18.4748 22.9099 22.2233 22.9099C24.1434 22.9099 26.6526 23.4233 28.1673 24.8863C30.0874 26.6906 29.9039 29.0982 29.9039 31.7187V37.9082C29.9039 39.7691 30.6688 40.584 31.3918 41.5914C31.6468 41.9507 31.7029 42.3794 31.379 42.6476L28.37 45.281L28.3573 45.2682" fill="white"/>
</svg>
