<svg width="1439" height="867" viewBox="0 0 1439 867" fill="none" xmlns="http://www.w3.org/2000/svg">
<g clip-path="url(#clip0_47_3038)">
<rect width="1439" height="867" fill="#090212"/>
<g opacity="0.8">
<g filter="url(#filter0_dd_47_3038)">
<path d="M7725.44 2082.15L831.685 -497.662" stroke="#AA7EF1" stroke-width="2.6514"/>
<path d="M7362.61 2082.15L831.683 -497.662" stroke="#AA7EF1" stroke-width="2.6514"/>
<path d="M-1708.03 2082.15L831.774 -497.662" stroke="#AA7EF1" stroke-width="2.6514"/>
<path d="M3371.49 2082.15L831.683 -497.662" stroke="#AA7EF1" stroke-width="2.6514"/>
<path d="M-1345.2 2082.15L831.774 -497.662" stroke="#AA7EF1" stroke-width="2.6514"/>
<path d="M3008.66 2082.15L831.683 -497.662" stroke="#AA7EF1" stroke-width="2.6514"/>
<path d="M-256.713 2082.15L831.774 -497.662" stroke="#AA7EF1" stroke-width="2.6514"/>
<path d="M1920.17 2082.15L831.682 -497.662" stroke="#AA7EF1" stroke-width="2.6514"/>
<path d="M106.958 2082.15L832.617 -497.662" stroke="#AA7EF1" stroke-width="2.6514"/>
<path d="M1557.34 2082.15L831.682 -497.662" stroke="#AA7EF1" stroke-width="2.6514"/>
<path d="M468.01 2082.15L830.839 -497.662" stroke="#AA7EF1" stroke-width="2.6514"/>
<path d="M831.683 2082.15V-497.662" stroke="#AA7EF1" stroke-width="2.6514"/>
<path d="M1194.51 2082.15L831.683 -497.662" stroke="#AA7EF1" stroke-width="2.6514"/>
<path d="M-982.373 2082.15L831.774 -497.662" stroke="#AA7EF1" stroke-width="2.6514"/>
<path d="M2645.83 2082.15L831.683 -497.662" stroke="#AA7EF1" stroke-width="2.6514"/>
<path d="M-619.542 2082.15L831.774 -497.662" stroke="#AA7EF1" stroke-width="2.6514"/>
<path d="M2283 2082.15L831.682 -497.662" stroke="#AA7EF1" stroke-width="2.6514"/>
<path d="M-2433.69 2082.15L831.774 -497.662" stroke="#AA7EF1" stroke-width="2.6514"/>
<path d="M4097.15 2082.15L831.684 -497.662" stroke="#AA7EF1" stroke-width="2.6514"/>
<path d="M-2070.86 2082.15L831.774 -497.662" stroke="#AA7EF1" stroke-width="2.6514"/>
<path d="M3734.32 2082.15L831.683 -497.662" stroke="#AA7EF1" stroke-width="2.6514"/>
<path d="M-3159.35 2082.15L831.775 -497.662" stroke="#AA7EF1" stroke-width="2.6514"/>
<path d="M4822.81 2082.15L831.684 -497.662" stroke="#AA7EF1" stroke-width="2.6514"/>
<path d="M-2796.52 2082.15L831.773 -497.662" stroke="#AA7EF1" stroke-width="2.6514"/>
<path d="M4459.98 2082.15L831.685 -497.662" stroke="#AA7EF1" stroke-width="2.6514"/>
<path d="M-3885.01 2082.15L831.774 -497.662" stroke="#AA7EF1" stroke-width="2.6514"/>
<path d="M5548.46 2082.15L831.682 -497.662" stroke="#AA7EF1" stroke-width="2.6514"/>
<path d="M-3522.18 2082.15L831.775 -497.662" stroke="#AA7EF1" stroke-width="2.6514"/>
<path d="M5185.63 2082.15L831.682 -497.662" stroke="#AA7EF1" stroke-width="2.6514"/>
<path d="M-4610.67 2082.15L831.773 -497.662" stroke="#AA7EF1" stroke-width="2.6514"/>
<path d="M6274.13 2082.15L831.688 -497.662" stroke="#AA7EF1" stroke-width="2.6514"/>
<path d="M-4247.83 2082.15L831.774 -497.662" stroke="#AA7EF1" stroke-width="2.6514"/>
<path d="M5911.29 2082.15L831.682 -497.662" stroke="#AA7EF1" stroke-width="2.6514"/>
<path d="M6999.78 2082.15L831.684 -497.662" stroke="#AA7EF1" stroke-width="2.6514"/>
<path d="M-4973.49 2082.15L831.773 -497.662" stroke="#AA7EF1" stroke-width="2.6514"/>
<path d="M6636.95 2082.15L831.684 -497.662" stroke="#AA7EF1" stroke-width="2.6514"/>
<path d="M-5517.74 857.349H8269.77" stroke="#AA7EF1" stroke-width="2.6514"/>
<path d="M-5517.74 830.222H8269.77" stroke="#AA7EF1" stroke-width="2.6514"/>
<path d="M-5517.74 803.998H8269.77" stroke="#AA7EF1" stroke-width="2.6514"/>
<path d="M-5517.74 778.68H8269.77" stroke="#AA7EF1" stroke-width="2.6514"/>
<path d="M-5517.74 754.265H8269.77" stroke="#AA7EF1" stroke-width="2.6514"/>
<path d="M-5517.74 730.755H8269.77" stroke="#AA7EF1" stroke-width="2.6514"/>
<path d="M-5517.74 708.149H8269.77" stroke="#AA7EF1" stroke-width="2.6514"/>
<path d="M-5517.74 686.446H8269.77" stroke="#AA7EF1" stroke-width="2.6514"/>
<path d="M-5517.74 665.648H8269.77" stroke="#AA7EF1" stroke-width="2.6514"/>
<path d="M-5517.74 645.755H8269.77" stroke="#AA7EF1" stroke-width="2.6514"/>
<path d="M-5517.74 626.767H8269.77" stroke="#AA7EF1" stroke-width="2.6514"/>
<path d="M-5517.74 608.681H8269.77" stroke="#AA7EF1" stroke-width="2.6514"/>
<path d="M-5517.74 591.501H8269.77" stroke="#AA7EF1" stroke-width="2.6514"/>
<path d="M-5517.74 575.225H8269.77" stroke="#AA7EF1" stroke-width="2.6514"/>
<path d="M-5517.74 559.852H8269.77" stroke="#AA7EF1" stroke-width="2.6514"/>
<path d="M-5517.74 545.384H8269.77" stroke="#AA7EF1" stroke-width="2.6514"/>
<path d="M-5517.74 531.822H8269.77" stroke="#AA7EF1" stroke-width="2.6514"/>
<path d="M-5517.74 519.162H8269.77" stroke="#AA7EF1" stroke-width="2.6514"/>
<path d="M-5517.74 507.407H8269.77" stroke="#AA7EF1" stroke-width="2.6514"/>
<path d="M-5517.74 496.556H8269.77" stroke="#AA7EF1" stroke-width="2.6514"/>
<path d="M-5517.74 486.609H8269.77" stroke="#AA7EF1" stroke-width="2.6514"/>
<path d="M-5517.74 477.567H8269.77" stroke="#AA7EF1" stroke-width="2.6514"/>
<path d="M-5517.74 469.428H8269.77" stroke="#AA7EF1" stroke-width="2.6514"/>
<path d="M-5517.74 462.194H8269.77" stroke="#AA7EF1" stroke-width="2.6514"/>
<path d="M-5517.74 455.865H8269.77" stroke="#AA7EF1" stroke-width="2.6514"/>
<path d="M-5517.74 450.439H8269.77" stroke="#AA7EF1" stroke-width="2.6514"/>
<path d="M-5517.74 445.918H8269.77" stroke="#AA7EF1" stroke-width="2.6514"/>
<path d="M-5517.74 442.3H8269.77" stroke="#AA7EF1" stroke-width="2.6514"/>
<path d="M-5517.74 439.588H8269.77" stroke="#AA7EF1" stroke-width="2.6514"/>
<path d="M-5517.74 437.78H8269.77" stroke="#AA7EF1" stroke-width="2.6514"/>
<path d="M-5517.74 436.876H8269.77" stroke="#AA7EF1" stroke-width="2.6514"/>
</g>
<rect width="2126.02" height="1193.13" transform="matrix(1 0 0 -1 -222.698 931.728)" fill="url(#paint0_linear_47_3038)"/>
<rect width="2194.39" height="2364.2" transform="matrix(-1 -8.74228e-08 -8.74228e-08 1 1937.5 70.5142)" fill="url(#paint1_linear_47_3038)" fill-opacity="0.2"/>
<rect width="2126.02" height="2363.1" transform="matrix(-1 -8.74228e-08 -8.74228e-08 1 1903.32 519.316)" fill="url(#paint2_linear_47_3038)"/>
<rect x="-213.876" y="277.823" width="1854.75" height="143.352" fill="url(#paint3_linear_47_3038)"/>
</g>
<g clip-path="url(#clip1_47_3038)">
<g filter="url(#filter1_dd_47_3038)">
<path d="M-4880.15 -1268.17L854.028 877.695" stroke="#8347E5" stroke-width="2.20541"/>
<path d="M-4578.35 -1268.17L854.028 877.695" stroke="#8347E5" stroke-width="2.20541"/>
<path d="M2966.62 -1268.17L854.029 877.695" stroke="#8347E5" stroke-width="2.20541"/>
<path d="M-1258.56 -1268.17L854.028 877.695" stroke="#8347E5" stroke-width="2.20541"/>
<path d="M2664.82 -1268.17L854.029 877.695" stroke="#8347E5" stroke-width="2.20541"/>
<path d="M-956.764 -1268.17L854.028 877.696" stroke="#8347E5" stroke-width="2.20541"/>
<path d="M1759.42 -1268.17L854.028 877.695" stroke="#8347E5" stroke-width="2.20541"/>
<path d="M-51.3672 -1268.17L854.029 877.696" stroke="#8347E5" stroke-width="2.20541"/>
<path d="M1457.63 -1268.17L854.029 877.695" stroke="#8347E5" stroke-width="2.20541"/>
<path d="M250.431 -1268.17L854.029 877.696" stroke="#8347E5" stroke-width="2.20541"/>
<path d="M1155.83 -1268.17L854.029 877.695" stroke="#8347E5" stroke-width="2.20541"/>
<path d="M854.028 -1268.17L854.028 877.695" stroke="#8347E5" stroke-width="2.20541"/>
<path d="M552.23 -1268.17L854.029 877.696" stroke="#8347E5" stroke-width="2.20541"/>
<path d="M2363.02 -1268.17L854.029 877.695" stroke="#8347E5" stroke-width="2.20541"/>
<path d="M-654.966 -1268.17L854.028 877.696" stroke="#8347E5" stroke-width="2.20541"/>
<path d="M2061.22 -1268.17L854.029 877.695" stroke="#8347E5" stroke-width="2.20541"/>
<path d="M-353.166 -1268.17L854.029 877.696" stroke="#8347E5" stroke-width="2.20541"/>
<path d="M3570.22 -1268.17L854.029 877.695" stroke="#8347E5" stroke-width="2.20541"/>
<path d="M-1862.16 -1268.17L854.027 877.695" stroke="#8347E5" stroke-width="2.20541"/>
<path d="M3268.42 -1268.17L854.028 877.695" stroke="#8347E5" stroke-width="2.20541"/>
<path d="M-1560.36 -1268.17L854.029 877.695" stroke="#8347E5" stroke-width="2.20541"/>
<path d="M4173.81 -1268.17L854.028 877.695" stroke="#8347E5" stroke-width="2.20541"/>
<path d="M-2465.76 -1268.17L854.028 877.695" stroke="#8347E5" stroke-width="2.20541"/>
<path d="M3872.02 -1268.17L854.029 877.695" stroke="#8347E5" stroke-width="2.20541"/>
<path d="M-2163.96 -1268.17L854.026 877.695" stroke="#8347E5" stroke-width="2.20541"/>
<path d="M4777.41 -1268.17L854.028 877.695" stroke="#8347E5" stroke-width="2.20541"/>
<path d="M-3069.36 -1268.17L854.029 877.695" stroke="#8347E5" stroke-width="2.20541"/>
<path d="M4475.61 -1268.17L854.029 877.695" stroke="#8347E5" stroke-width="2.20541"/>
<path d="M-2767.56 -1268.17L854.03 877.695" stroke="#8347E5" stroke-width="2.20541"/>
<path d="M5381.01 -1268.17L854.029 877.696" stroke="#8347E5" stroke-width="2.20541"/>
<path d="M-3672.96 -1268.17L854.026 877.696" stroke="#8347E5" stroke-width="2.20541"/>
<path d="M5079.21 -1268.17L854.029 877.696" stroke="#8347E5" stroke-width="2.20541"/>
<path d="M-3371.15 -1268.17L854.03 877.695" stroke="#8347E5" stroke-width="2.20541"/>
<path d="M-4276.55 -1268.17L854.029 877.696" stroke="#8347E5" stroke-width="2.20541"/>
<path d="M5682.81 -1268.17L854.029 877.696" stroke="#8347E5" stroke-width="2.20541"/>
<path d="M-3974.75 -1268.17L854.029 877.696" stroke="#8347E5" stroke-width="2.20541"/>
<path d="M6135.51 10.0973L-5332.85 10.0963" stroke="#8347E5" stroke-width="2.20541"/>
<path d="M6135.51 21.3786L-5332.85 21.3776" stroke="#8347E5" stroke-width="2.20541"/>
<path d="M6135.51 31.9091L-5332.85 31.9081" stroke="#8347E5" stroke-width="2.20541"/>
<path d="M6135.51 41.687L-5332.85 41.6859" stroke="#8347E5" stroke-width="2.20541"/>
<path d="M6135.51 50.7126L-5332.85 50.7116" stroke="#8347E5" stroke-width="2.20541"/>
<path d="M6135.51 58.9865L-5332.85 58.9854" stroke="#8347E5" stroke-width="2.20541"/>
<path d="M6135.51 66.5075L-5332.85 66.5065" stroke="#8347E5" stroke-width="2.20541"/>
<path d="M6135.51 73.2771L-5332.85 73.2761" stroke="#8347E5" stroke-width="2.20541"/>
<path d="M6135.51 79.2946L-5332.85 79.2936" stroke="#8347E5" stroke-width="2.20541"/>
<path d="M6135.51 84.5591L-5332.85 84.5581" stroke="#8347E5" stroke-width="2.20541"/>
<path d="M6135.51 89.072L-5332.85 89.071" stroke="#8347E5" stroke-width="2.20541"/>
<path d="M6135.51 92.8328L-5332.85 92.8318" stroke="#8347E5" stroke-width="2.20541"/>
<path d="M6135.51 95.842L-5332.85 95.841" stroke="#8347E5" stroke-width="2.20541"/>
<path d="M6135.51 98.098L-5332.85 98.097" stroke="#8347E5" stroke-width="2.20541"/>
<path d="M6135.51 99.6022L-5332.85 99.6012" stroke="#8347E5" stroke-width="2.20541"/>
<path d="M6135.51 100.354L-5332.85 100.353" stroke="#8347E5" stroke-width="2.20541"/>
</g>
<rect width="1854.75" height="992.436" transform="matrix(-1 -8.74228e-08 -8.74228e-08 1 1640.88 -311.022)" fill="url(#paint4_linear_47_3038)"/>
<rect width="1854.75" height="1966.13" transform="matrix(1 1.74846e-07 1.74846e-07 -1 -213.876 31.9195)" fill="url(#paint5_linear_47_3038)"/>
<rect width="1854.75" height="1966.13" transform="matrix(1 1.74846e-07 1.74846e-07 -1 -213.876 404.634)" fill="url(#paint6_linear_47_3038)" fill-opacity="0.2"/>
</g>
<rect x="-213.968" y="-145.824" width="1854.75" height="422.337" fill="url(#paint7_linear_47_3038)"/>
<path d="M-213.968 329.443H1640.78V884.104H-213.968V329.443Z" fill="url(#paint8_linear_47_3038)"/>
</g>
<defs>
<filter id="filter0_dd_47_3038" x="-5584.02" y="-565.188" width="13920.1" height="2714.86" filterUnits="userSpaceOnUse" color-interpolation-filters="sRGB">
<feFlood flood-opacity="0" result="BackgroundImageFix"/>
<feColorMatrix in="SourceAlpha" type="matrix" values="0 0 0 0 0 0 0 0 0 0 0 0 0 0 0 0 0 0 127 0" result="hardAlpha"/>
<feOffset/>
<feGaussianBlur stdDeviation="6.62849"/>
<feColorMatrix type="matrix" values="0 0 0 0 0.717647 0 0 0 0 0.847059 0 0 0 0 1 0 0 0 1 0"/>
<feBlend mode="normal" in2="BackgroundImageFix" result="effect1_dropShadow_47_3038"/>
<feColorMatrix in="SourceAlpha" type="matrix" values="0 0 0 0 0 0 0 0 0 0 0 0 0 0 0 0 0 0 127 0" result="hardAlpha"/>
<feOffset/>
<feGaussianBlur stdDeviation="33.1425"/>
<feColorMatrix type="matrix" values="0 0 0 0 0.717647 0 0 0 0 0.847059 0 0 0 0 1 0 0 0 1 0"/>
<feBlend mode="normal" in2="effect1_dropShadow_47_3038" result="effect2_dropShadow_47_3038"/>
<feBlend mode="normal" in="SourceGraphic" in2="effect2_dropShadow_47_3038" result="shape"/>
</filter>
<filter id="filter1_dd_47_3038" x="-5387.98" y="-1324.34" width="11578.6" height="2258.2" filterUnits="userSpaceOnUse" color-interpolation-filters="sRGB">
<feFlood flood-opacity="0" result="BackgroundImageFix"/>
<feColorMatrix in="SourceAlpha" type="matrix" values="0 0 0 0 0 0 0 0 0 0 0 0 0 0 0 0 0 0 127 0" result="hardAlpha"/>
<feOffset/>
<feGaussianBlur stdDeviation="5.51353"/>
<feColorMatrix type="matrix" values="0 0 0 0 0.717647 0 0 0 0 0.847059 0 0 0 0 1 0 0 0 1 0"/>
<feBlend mode="normal" in2="BackgroundImageFix" result="effect1_dropShadow_47_3038"/>
<feColorMatrix in="SourceAlpha" type="matrix" values="0 0 0 0 0 0 0 0 0 0 0 0 0 0 0 0 0 0 127 0" result="hardAlpha"/>
<feOffset/>
<feGaussianBlur stdDeviation="27.5677"/>
<feColorMatrix type="matrix" values="0 0 0 0 0.717647 0 0 0 0 0.847059 0 0 0 0 1 0 0 0 1 0"/>
<feBlend mode="normal" in2="effect1_dropShadow_47_3038" result="effect2_dropShadow_47_3038"/>
<feBlend mode="normal" in="SourceGraphic" in2="effect2_dropShadow_47_3038" result="shape"/>
</filter>
<linearGradient id="paint0_linear_47_3038" x1="1063.01" y1="-224.706" x2="1063.01" y2="1193.13" gradientUnits="userSpaceOnUse">
<stop offset="0.149515" stop-color="#090212" stop-opacity="0"/>
<stop offset="0.515209" stop-color="#090212"/>
</linearGradient>
<linearGradient id="paint1_linear_47_3038" x1="1097.19" y1="0" x2="1097.19" y2="2364.2" gradientUnits="userSpaceOnUse">
<stop stop-color="#8247E5" stop-opacity="0"/>
<stop offset="0.416667" stop-color="#8247E5"/>
</linearGradient>
<linearGradient id="paint2_linear_47_3038" x1="1063.01" y1="0" x2="1063.01" y2="2363.1" gradientUnits="userSpaceOnUse">
<stop stop-color="#5200FF" stop-opacity="0"/>
<stop offset="0.416667" stop-color="#631AFF"/>
</linearGradient>
<linearGradient id="paint3_linear_47_3038" x1="713.5" y1="281.737" x2="713.5" y2="421.175" gradientUnits="userSpaceOnUse">
<stop stop-color="#090212"/>
<stop offset="1" stop-color="#090212"/>
</linearGradient>
<linearGradient id="paint4_linear_47_3038" x1="927.376" y1="-186.909" x2="927.376" y2="992.436" gradientUnits="userSpaceOnUse">
<stop offset="0.149515" stop-color="#090212" stop-opacity="0"/>
<stop offset="0.515209" stop-color="#090212"/>
<stop offset="0.651042" stop-color="#090212"/>
</linearGradient>
<linearGradient id="paint5_linear_47_3038" x1="927.376" y1="0" x2="927.376" y2="1966.13" gradientUnits="userSpaceOnUse">
<stop stop-color="#5200FF" stop-opacity="0"/>
<stop offset="0.416667" stop-color="#631AFF"/>
</linearGradient>
<linearGradient id="paint6_linear_47_3038" x1="927.376" y1="0" x2="927.376" y2="1966.13" gradientUnits="userSpaceOnUse">
<stop stop-color="#8247E5" stop-opacity="0"/>
<stop offset="0.416667" stop-color="#8247E5"/>
</linearGradient>
<linearGradient id="paint7_linear_47_3038" x1="713.409" y1="-145.824" x2="713.409" y2="276.513" gradientUnits="userSpaceOnUse">
<stop stop-color="#090212" stop-opacity="0.75"/>
<stop offset="1" stop-color="#090212"/>
</linearGradient>
<linearGradient id="paint8_linear_47_3038" x1="713.409" y1="329.443" x2="713.409" y2="981.694" gradientUnits="userSpaceOnUse">
<stop stop-color="#090212"/>
<stop offset="1" stop-color="#090212" stop-opacity="0.38"/>
</linearGradient>
<clipPath id="clip0_47_3038">
<rect width="1439" height="867" fill="white"/>
</clipPath>
<clipPath id="clip1_47_3038">
<rect width="1854.75" height="583.332" fill="white" transform="translate(1640.88 272.31) rotate(-180)"/>
</clipPath>
</defs>
</svg>
