<svg viewBox="0 0 239 49" fill="none" xmlns="http://www.w3.org/2000/svg">
<g clip-path="url(#clip0_47_3302)">
<path d="M14.4346 20.5863L23.7327 11.265L33.0357 20.5912L38.446 15.1672L23.7327 0.41626L9.02432 15.1623L14.4346 20.5863Z" fill="#F3BA2F"/>
<path d="M10.6139 24.4153L5.2037 18.9915L-0.206749 24.4156L5.20344 29.8395L10.6139 24.4153Z" fill="#F3BA2F"/>
<path d="M14.4346 28.2462L23.7327 37.5675L33.0354 28.2417L38.4487 33.6626L38.446 33.6657L23.7327 48.4162L9.02395 33.6706L9.01639 33.663L14.4346 28.2462Z" fill="#F3BA2F"/>
<path d="M42.2622 29.8421L47.6727 24.418L42.2625 18.9941L36.852 24.4182L42.2622 29.8421Z" fill="#F3BA2F"/>
<path d="M29.2205 24.4134H29.2228L23.7327 18.9094L19.6755 22.9769H19.6751L19.2092 23.4444L18.2476 24.4085L18.24 24.4161L18.2476 24.424L23.7327 29.9231L29.2228 24.4191L29.2254 24.4161L29.2205 24.4134Z" fill="#F3BA2F"/>
<path d="M56.107 12.0471H67.8741C70.7946 12.0471 73.003 12.7985 74.4998 14.3013C75.6581 15.4652 76.237 16.9077 76.237 18.6285V18.7013C76.237 19.4285 76.1474 20.0711 75.967 20.6284C75.787 21.1864 75.5465 21.6887 75.2459 22.1372C74.946 22.5861 74.5974 22.98 74.201 23.3189C73.8044 23.6586 73.3782 23.9498 72.9217 24.1917C74.3897 24.7497 75.5454 25.5068 76.3879 26.4644C77.2301 27.4225 77.6517 28.7497 77.6517 30.4463V30.5187C77.6517 31.6826 77.4286 32.7005 76.982 33.5736C76.5354 34.4459 75.8956 35.1734 75.0625 35.7554C74.2294 36.3373 73.2277 36.7733 72.0569 37.0645C70.8861 37.3553 69.5887 37.5005 68.1649 37.5005H56.107V12.0471ZM66.6977 22.3374C67.9312 22.3374 68.9106 22.1259 69.6356 21.7013C70.3609 21.277 70.7235 20.592 70.7235 19.6468V19.574C70.7235 18.726 70.4089 18.0777 69.7804 17.6288C69.1515 17.1803 68.2447 16.9559 67.0603 16.9559H61.5472V22.3374H66.6977ZM68.185 32.5921C69.4181 32.5921 70.3847 32.3684 71.0865 31.9195C71.7876 31.471 72.1386 30.7738 72.1386 29.8283V29.7559C72.1386 28.9075 71.8119 28.2349 71.1592 27.7375C70.5061 27.2412 69.4544 26.9925 68.0034 26.9925H61.5472V32.5924H68.185V32.5921Z" fill="#F3BA2F"/>
<path d="M84.6597 12.0471H90.2459V37.5012H84.6597V12.0471Z" fill="#F3BA2F"/>
<path d="M98.7063 12.0471H103.856L115.753 27.7197V12.0471H121.266V37.5012H116.515L104.219 21.3199V37.5012H98.7063V12.0471Z" fill="#F3BA2F"/>
<path d="M138.178 11.8655H143.328L154.209 37.5012H148.37L146.048 31.7925H135.312L132.991 37.5012H127.295L138.178 11.8655ZM144.053 26.8465L140.68 18.5925L137.307 26.8465H144.053Z" fill="#F3BA2F"/>
<path d="M160.239 12.0471H165.39L177.286 27.7197V12.0471H182.8V37.5012H178.048L165.752 21.3199V37.5012H160.239V12.0471Z" fill="#F3BA2F"/>
<path d="M202.902 37.9373C201.04 37.9373 199.311 37.5976 197.715 36.9194C196.119 36.2411 194.741 35.3134 193.58 34.1374C192.419 32.9618 191.512 31.5738 190.86 29.974C190.207 28.3737 189.881 26.6647 189.881 24.8465V24.7741C189.881 22.9558 190.207 21.2532 190.86 19.6651C191.513 18.0774 192.419 16.6834 193.58 15.4835C194.741 14.2836 196.131 13.3377 197.751 12.647C199.371 11.9562 201.161 11.6108 203.12 11.6108C204.304 11.6108 205.386 11.7083 206.365 11.9016C207.345 12.0961 208.233 12.3622 209.032 12.7016C209.83 13.0412 210.566 13.4533 211.244 13.9378C211.92 14.4231 212.55 14.9561 213.13 15.5381L209.576 19.6469C208.583 18.7503 207.574 18.0467 206.547 17.5379C205.519 17.0291 204.365 16.7744 203.083 16.7744C202.019 16.7744 201.034 16.9806 200.127 17.3927C199.221 17.8048 198.44 18.3742 197.787 19.1014C197.135 19.8285 196.627 20.6713 196.264 21.6285C195.902 22.5866 195.721 23.6106 195.721 24.7013V24.7737C195.721 25.8644 195.902 26.8952 196.264 27.8642C196.627 28.8344 197.128 29.6824 197.77 30.4096C198.41 31.1367 199.184 31.713 200.09 32.1372C200.998 32.5618 201.995 32.7734 203.083 32.7734C204.534 32.7734 205.76 32.5068 206.764 31.9734C207.768 31.4408 208.766 30.7133 209.757 29.7916L213.311 33.3917C212.658 34.095 211.98 34.7254 211.28 35.2823C210.579 35.8404 209.811 36.3188 208.977 36.7192C208.143 37.1188 207.229 37.4224 206.239 37.6279C205.247 37.8338 204.135 37.9373 202.902 37.9373Z" fill="#F3BA2F"/>
<path d="M219.885 12.0471H239V17.0291H225.399V22.1926H237.368V27.1741H225.399V32.5197H239.182V37.5012H219.885V12.0471Z" fill="#F3BA2F"/>
</g>
<defs>
<clipPath id="clip0_47_3302">
<rect width="239" height="48" fill="white" transform="translate(0 0.41626)"/>
</clipPath>
</defs>
</svg>
