<svg viewBox="0 0 36 35" fill="none" xmlns="http://www.w3.org/2000/svg">
<path d="M23.4824 2.91669C24.1008 2.91524 24.5898 3.39625 24.5912 4.03759L24.5927 5.13079C28.6052 5.44564 31.2558 8.18301 31.2601 12.3809L31.276 24.6685C31.2817 29.2454 28.4096 32.0615 23.806 32.0688L12.5608 32.0834C7.98586 32.0892 5.07784 29.206 5.07208 24.616L5.05625 12.4727C5.05051 8.24715 7.60762 5.51706 11.6202 5.14828L11.6187 4.05508C11.6173 3.41374 12.0919 2.93127 12.7247 2.93127C13.3575 2.92981 13.8321 3.41082 13.8336 4.05217L13.835 5.07249L22.3779 5.06083L22.3764 4.04051C22.375 3.39916 22.8496 2.91815 23.4824 2.91669ZM24.0692 23.6132H24.0548C23.3932 23.6292 22.8625 24.1846 22.8769 24.8551C22.8783 25.5256 23.4119 26.078 24.0735 26.0926C24.748 26.0911 25.2945 25.5358 25.2931 24.8507C25.2931 24.1656 24.7451 23.6132 24.0692 23.6132ZM12.2185 23.6147C11.5569 23.6438 11.0391 24.1992 11.0406 24.8697C11.0708 25.5402 11.6173 26.0649 12.2789 26.0343C12.9275 26.0051 13.4438 25.4498 13.4136 24.7793C13.3992 24.1234 12.8656 23.6132 12.2185 23.6147ZM18.1438 23.6074C17.4822 23.638 16.9659 24.1919 16.9659 24.8624C16.9961 25.5329 17.5426 26.0561 18.2042 26.027C18.8514 25.9964 19.3692 25.4425 19.339 24.7705C19.3246 24.1161 18.791 23.6059 18.1438 23.6074ZM12.2113 18.3673C11.5497 18.3964 11.0334 18.9518 11.0348 19.6223C11.0636 20.2928 11.6115 20.8175 12.2731 20.7869C12.9203 20.7578 13.4366 20.2024 13.4064 19.5319C13.392 18.876 12.8599 18.3658 12.2113 18.3673ZM18.1381 18.3163C17.4765 18.3454 16.9587 18.9008 16.9602 19.5713C16.9889 20.2418 17.5369 20.765 18.1985 20.7359C18.8457 20.7053 19.362 20.1514 19.3332 19.4809C19.3174 18.825 18.7852 18.3148 18.1381 18.3163ZM24.0634 18.3236C23.4018 18.3381 22.8841 18.8775 22.8855 19.5479V19.564C22.8999 20.2345 23.4464 20.7432 24.1094 20.7286C24.7566 20.7126 25.2729 20.1572 25.2585 19.4867C25.2283 18.8454 24.7092 18.3221 24.0634 18.3236ZM22.3807 7.30554L13.8379 7.3172L13.8393 8.4964C13.8393 9.12463 13.3661 9.62021 12.7333 9.62021C12.1005 9.62167 11.6245 9.12754 11.6245 8.49931L11.623 7.37696C8.81857 7.65828 7.26676 9.30828 7.27107 12.4698L7.27252 12.9231L29.0467 12.894V12.3838C28.9849 9.24998 27.4144 7.6058 24.5955 7.36093L24.597 8.48328C24.597 9.11005 24.1094 9.60709 23.491 9.60709C22.8582 9.60855 22.3822 9.11297 22.3822 8.4862L22.3807 7.30554Z" fill="white"/>
</svg>
