<svg width="16" height="16" viewBox="0 0 16 16" fill="none" xmlns="http://www.w3.org/2000/svg">
<g clip-path="url(#clip0_220_1303)">
<path fill-rule="evenodd" clip-rule="evenodd" d="M8.40483 0.314453C4.27861 0.314453 0.936554 3.65651 0.936554 7.78273C0.936554 11.0874 3.07435 13.8787 6.04299 14.8683C6.4164 14.9336 6.55643 14.7096 6.55643 14.5135C6.55643 14.3361 6.5471 13.748 6.5471 13.1226C4.67069 13.468 4.18526 12.6651 4.03589 12.245C3.95187 12.0303 3.58779 11.3675 3.27039 11.1901C3.009 11.0501 2.63559 10.7047 3.26106 10.6954C3.84918 10.686 4.26927 11.2368 4.4093 11.4609C5.08145 12.5904 6.15501 12.273 6.58444 12.077C6.64979 11.5916 6.84583 11.2648 7.06054 11.0781C5.39885 10.8914 3.66248 10.2473 3.66248 7.39065C3.66248 6.57847 3.95187 5.90633 4.42797 5.38355C4.35329 5.19684 4.0919 4.43134 4.50266 3.40445C4.50266 3.40445 5.12813 3.20841 6.55643 4.16995C7.1539 4.00192 7.7887 3.9179 8.4235 3.9179C9.05831 3.9179 9.69311 4.00192 10.2906 4.16995C11.7189 3.19908 12.3444 3.40445 12.3444 3.40445C12.7551 4.43134 12.4937 5.19684 12.419 5.38355C12.8951 5.90633 13.1845 6.56914 13.1845 7.39065C13.1845 10.2566 11.4388 10.8914 9.77713 11.0781C10.0479 11.3115 10.2812 11.7596 10.2812 12.4597C10.2812 13.4586 10.2719 14.2615 10.2719 14.5135C10.2719 14.7096 10.4119 14.9429 10.7853 14.8683C12.2679 14.3677 13.5562 13.4149 14.4689 12.1438C15.3815 10.8728 15.8727 9.34751 15.8731 7.78273C15.8731 3.65651 12.5311 0.314453 8.40483 0.314453Z" fill="#A19DAB"/>
</g>
<defs>
<clipPath id="clip0_220_1303">
<rect width="14.9366" height="14.9366" fill="white" transform="translate(0.936554 0.314453)"/>
</clipPath>
</defs>
</svg>
