<svg viewBox="0 0 142 49" fill="none" xmlns="http://www.w3.org/2000/svg">
<g clip-path="url(#clip0_88_4730)">
<path d="M60.4283 25.0319C60.4283 31.6945 55.213 36.6041 48.8125 36.6041C42.4121 36.6041 37.1967 31.6945 37.1967 25.0319C37.1967 18.3223 42.4121 13.4597 48.8125 13.4597C55.213 13.4597 60.4283 18.3223 60.4283 25.0319ZM55.3435 25.0319C55.3435 20.8684 52.3208 18.0197 48.8125 18.0197C45.3043 18.0197 42.2816 20.8684 42.2816 25.0319C42.2816 29.1536 45.3043 32.0441 48.8125 32.0441C52.3208 32.0441 55.3435 29.1484 55.3435 25.0319Z" fill="#EA4335"/>
<path d="M85.4871 25.0319C85.4871 31.6945 80.2717 36.6041 73.8713 36.6041C67.4709 36.6041 62.2555 31.6945 62.2555 25.0319C62.2555 18.3275 67.4709 13.4597 73.8713 13.4597C80.2717 13.4597 85.4871 18.3223 85.4871 25.0319ZM80.4023 25.0319C80.4023 20.8684 77.3795 18.0197 73.8713 18.0197C70.3631 18.0197 67.3403 20.8684 67.3403 25.0319C67.3403 29.1536 70.3631 32.0441 73.8713 32.0441C77.3795 32.0441 80.4023 29.1484 80.4023 25.0319Z" fill="#FBBC05"/>
<path d="M109.502 14.1588V34.9345C109.502 43.4806 104.459 46.971 98.4968 46.971C92.8847 46.971 89.507 43.2197 88.2332 40.1519L92.6602 38.3102C93.4485 40.1936 95.3801 42.4162 98.4916 42.4162C102.308 42.4162 104.673 40.0632 104.673 35.6336V33.9693H104.495C103.357 35.3728 101.165 36.5988 98.3976 36.5988C92.608 36.5988 87.3039 31.5588 87.3039 25.0736C87.3039 18.5415 92.608 13.4597 98.3976 13.4597C101.159 13.4597 103.352 14.6858 104.495 16.0475H104.673V14.1641H109.502V14.1588ZM105.033 25.0736C105.033 20.9988 102.313 18.0197 98.8518 18.0197C95.3436 18.0197 92.4044 20.9988 92.4044 25.0736C92.4044 29.1067 95.3436 32.0441 98.8518 32.0441C102.313 32.0441 105.033 29.1067 105.033 25.0736Z" fill="#4285F4"/>
<path d="M117.463 1.98145V35.8945H112.504V1.98145H117.463Z" fill="#34A853"/>
<path d="M136.79 28.8407L140.737 31.4702C139.463 33.3537 136.393 36.5989 131.089 36.5989C124.511 36.5989 119.598 31.5172 119.598 25.0268C119.598 18.145 124.553 13.4546 130.52 13.4546C136.529 13.4546 139.468 18.2337 140.429 20.8163L140.956 22.1311L125.477 28.5381C126.662 30.8598 128.505 32.0442 131.089 32.0442C133.678 32.0442 135.474 30.7711 136.79 28.8407ZM124.642 24.6772L134.989 20.3833C134.42 18.9381 132.707 17.9311 130.692 17.9311C128.108 17.9311 124.511 20.2111 124.642 24.6772Z" fill="#EA4335"/>
<path d="M18.4234 22.0214V17.1118H34.9779C35.1398 17.9675 35.2233 18.9796 35.2233 20.0753C35.2233 23.7588 34.2157 28.3135 30.9685 31.5588C27.8101 34.8457 23.7745 36.5988 18.4287 36.5988C8.51999 36.5988 0.187927 28.5327 0.187927 18.6301C0.187927 8.72746 8.51999 0.661377 18.4287 0.661377C23.9103 0.661377 27.8153 2.81094 30.7493 5.61268L27.2828 9.07703C25.1789 7.10486 22.3284 5.57094 18.4234 5.57094C11.1877 5.57094 5.52859 11.3988 5.52859 18.6301C5.52859 25.8614 11.1877 31.6892 18.4234 31.6892C23.1168 31.6892 25.7897 29.8057 27.502 28.0944C28.8907 26.7066 29.8043 24.724 30.1645 22.0162L18.4234 22.0214Z" fill="#4285F4"/>
</g>
<defs>
<clipPath id="clip0_88_4730">
<rect width="142" height="48" fill="white" transform="translate(0 0.41626)"/>
</clipPath>
</defs>
</svg>
