<svg width="35" height="35" viewBox="0 0 35 35" fill="none" xmlns="http://www.w3.org/2000/svg">
<rect width="35" height="35" rx="10" fill="#DD2A7B"/>
<path fill-rule="evenodd" clip-rule="evenodd" d="M13.7208 8.38825C14.6983 8.34325 15.01 8.33325 17.5 8.33325C19.99 8.33325 20.3017 8.34409 21.2783 8.38825C22.255 8.43242 22.9217 8.58825 23.505 8.81409C24.1158 9.04492 24.67 9.40575 25.1283 9.87242C25.595 10.3299 25.955 10.8833 26.185 11.4949C26.4117 12.0783 26.5667 12.7449 26.6117 13.7199C26.6567 14.6991 26.6667 15.0108 26.6667 17.4999C26.6667 19.9899 26.6558 20.3016 26.6117 21.2791C26.5675 22.2541 26.4117 22.9208 26.185 23.5041C25.955 24.1158 25.5944 24.6701 25.1283 25.1283C24.67 25.5949 24.1158 25.9549 23.505 26.1849C22.9217 26.4116 22.255 26.5666 21.28 26.6116C20.3017 26.6566 19.99 26.6666 17.5 26.6666C15.01 26.6666 14.6983 26.6558 13.7208 26.6116C12.7458 26.5674 12.0792 26.4116 11.4958 26.1849C10.8841 25.9549 10.3299 25.5943 9.87168 25.1283C9.40533 24.6705 9.04444 24.1165 8.81418 23.5049C8.58834 22.9216 8.43334 22.2549 8.38834 21.2799C8.34334 20.3008 8.33334 19.9891 8.33334 17.4999C8.33334 15.0099 8.34418 14.6983 8.38834 13.7216C8.43251 12.7449 8.58834 12.0783 8.81418 11.4949C9.04478 10.8833 9.40594 10.3293 9.87251 9.87159C10.33 9.40534 10.8837 9.04445 11.495 8.81409C12.0783 8.58825 12.745 8.43325 13.72 8.38825H13.7208ZM21.2042 10.0383C20.2375 9.99409 19.9475 9.98492 17.5 9.98492C15.0525 9.98492 14.7625 9.99409 13.7958 10.0383C12.9017 10.0791 12.4167 10.2283 12.0933 10.3541C11.6658 10.5208 11.36 10.7183 11.0392 11.0391C10.735 11.335 10.501 11.6952 10.3542 12.0933C10.2283 12.4166 10.0792 12.9016 10.0383 13.7958C9.99418 14.7624 9.98501 15.0524 9.98501 17.4999C9.98501 19.9474 9.99418 20.2374 10.0383 21.2041C10.0792 22.0983 10.2283 22.5833 10.3542 22.9066C10.5008 23.3041 10.735 23.6649 11.0392 23.9608C11.335 24.2649 11.6958 24.4991 12.0933 24.6458C12.4167 24.7716 12.9017 24.9208 13.7958 24.9616C14.7625 25.0058 15.0517 25.0149 17.5 25.0149C19.9483 25.0149 20.2375 25.0058 21.2042 24.9616C22.0983 24.9208 22.5833 24.7716 22.9067 24.6458C23.3342 24.4791 23.64 24.2816 23.9608 23.9608C24.265 23.6649 24.4992 23.3041 24.6458 22.9066C24.7717 22.5833 24.9208 22.0983 24.9617 21.2041C25.0058 20.2374 25.015 19.9474 25.015 17.4999C25.015 15.0524 25.0058 14.7624 24.9617 13.7958C24.9208 12.9016 24.7717 12.4166 24.6458 12.0933C24.4792 11.6658 24.2817 11.3599 23.9608 11.0391C23.665 10.735 23.3048 10.5009 22.9067 10.3541C22.5833 10.2283 22.0983 10.0791 21.2042 10.0383ZM16.3292 20.3258C16.9831 20.5979 17.7112 20.6347 18.3891 20.4297C19.0671 20.2247 19.6528 19.7907 20.0464 19.2018C20.4399 18.6129 20.6167 17.9056 20.5467 17.2008C20.4767 16.496 20.1642 15.8374 19.6625 15.3374C19.3427 15.0178 18.956 14.7731 18.5303 14.6209C18.1046 14.4687 17.6504 14.4127 17.2004 14.4571C16.7505 14.5015 16.316 14.6451 15.9282 14.8775C15.5404 15.11 15.209 15.4255 14.9578 15.8015C14.7066 16.1774 14.5418 16.6043 14.4754 17.0516C14.409 17.4988 14.4426 17.9552 14.5738 18.3878C14.705 18.8205 14.9304 19.2188 15.2339 19.5539C15.5375 19.8889 15.9115 20.1526 16.3292 20.3258ZM14.1683 14.1683C14.6059 13.7307 15.1253 13.3837 15.6969 13.1469C16.2686 12.9101 16.8813 12.7882 17.5 12.7882C18.1188 12.7882 18.7314 12.9101 19.3031 13.1469C19.8747 13.3837 20.3942 13.7307 20.8317 14.1683C21.2692 14.6058 21.6163 15.1252 21.853 15.6968C22.0898 16.2685 22.2117 16.8812 22.2117 17.4999C22.2117 18.1187 22.0898 18.7314 21.853 19.303C21.6163 19.8747 21.2692 20.3941 20.8317 20.8316C19.9481 21.7152 18.7496 22.2116 17.5 22.2116C16.2504 22.2116 15.052 21.7152 14.1683 20.8316C13.2847 19.948 12.7883 18.7495 12.7883 17.4999C12.7883 16.2503 13.2847 15.0519 14.1683 14.1683ZM23.2567 13.4899C23.3651 13.3876 23.4519 13.2647 23.5119 13.1282C23.572 12.9918 23.604 12.8447 23.6062 12.6957C23.6084 12.5467 23.5806 12.3987 23.5246 12.2606C23.4685 12.1225 23.3854 11.997 23.28 11.8916C23.1746 11.7862 23.0491 11.703 22.911 11.647C22.7729 11.591 22.6249 11.5632 22.4759 11.5654C22.3269 11.5676 22.1798 11.5996 22.0434 11.6597C21.9069 11.7197 21.784 11.8065 21.6817 11.9149C21.4828 12.1258 21.3739 12.4059 21.3781 12.6957C21.3823 12.9855 21.4993 13.2623 21.7043 13.4673C21.9093 13.6723 22.1861 13.7893 22.4759 13.7935C22.7657 13.7977 23.0458 13.6888 23.2567 13.4899Z" fill="white"/>
</svg>
