<svg width="35" height="35" viewBox="0 0 35 35" fill="none" xmlns="http://www.w3.org/2000/svg">
<rect width="35" height="35" rx="10" fill="#0072B1"/>
<path fill-rule="evenodd" clip-rule="evenodd" d="M15.3575 14.9742H18.4525V16.5159C18.8983 15.6292 20.0417 14.8326 21.7592 14.8326C25.0517 14.8326 25.8333 16.5976 25.8333 19.8359V25.8334H22.5V20.5734C22.5 18.7292 22.0542 17.6892 20.9192 17.6892C19.345 17.6892 18.6908 18.8101 18.6908 20.5726V25.8334H15.3575V14.9742ZM9.64166 25.6917H12.975V14.8326H9.64166V25.6917ZM13.4525 11.2917C13.4526 11.5711 13.3972 11.8478 13.2895 12.1056C13.1818 12.3634 13.0239 12.5972 12.825 12.7934C12.422 13.1939 11.8765 13.4181 11.3083 13.4167C10.7411 13.4164 10.1969 13.1927 9.79332 12.7942C9.59517 12.5973 9.43781 12.3633 9.33028 12.1054C9.22274 11.8476 9.16714 11.5711 9.16666 11.2917C9.16666 10.7276 9.39166 10.1876 9.79416 9.78925C10.1974 9.39021 10.7419 9.1665 11.3092 9.16675C11.8775 9.16675 12.4225 9.39091 12.825 9.78925C13.2267 10.1876 13.4525 10.7276 13.4525 11.2917Z" fill="white"/>
</svg>
