<svg width="16" height="16" viewBox="0 0 16 16" fill="none" xmlns="http://www.w3.org/2000/svg">
<path fill-rule="evenodd" clip-rule="evenodd" d="M6.14615 5.89653H8.45758V7.04789C8.79054 6.3857 9.64441 5.79073 10.9271 5.79073C13.386 5.79073 13.9698 7.10888 13.9698 9.52736V14.0065H11.4804V10.0781C11.4804 8.70087 11.1474 7.92417 10.2998 7.92417C9.12412 7.92417 8.63557 8.76124 8.63557 10.0775V14.0065H6.14615V5.89653V5.89653ZM1.8774 13.9007H4.36683V5.79073H1.8774V13.9007V13.9007ZM4.72344 3.14634C4.72353 3.355 4.68215 3.56159 4.6017 3.75412C4.52125 3.94665 4.40333 4.12127 4.2548 4.26782C3.95383 4.56694 3.54644 4.73437 3.12212 4.73334C2.69853 4.73306 2.29209 4.56605 1.99067 4.26844C1.84268 4.12139 1.72517 3.94658 1.64486 3.75402C1.56454 3.56147 1.52302 3.35496 1.52266 3.14634C1.52266 2.725 1.6907 2.32171 1.99129 2.02423C2.29244 1.72622 2.69906 1.55914 3.12274 1.55933C3.54719 1.55933 3.95421 1.72674 4.2548 2.02423C4.55478 2.32171 4.72344 2.725 4.72344 3.14634Z" fill="#A19DAB"/>
</svg>
