<svg viewBox="0 0 126 37" fill="none" xmlns="http://www.w3.org/2000/svg">
<g clip-path="url(#clip0_49_3762)">
<path d="M21.998 8.18594C21.4601 7.85235 20.7609 7.85235 20.1692 8.18594L15.974 10.7434L13.1234 12.4113L8.92822 14.969C8.39038 15.3024 7.69121 15.3024 7.09957 14.969L3.76492 12.9674C3.22708 12.6338 2.85059 12.0222 2.85059 11.355V7.40757C2.85059 6.7404 3.17329 6.12882 3.76492 5.79523L7.04578 3.8493C7.58362 3.51572 8.28285 3.51572 8.87446 3.8493L12.1554 5.79523C12.6932 6.12882 13.0697 6.7404 13.0697 7.40757V9.96507L15.9203 8.24154V5.68403C15.9203 5.01685 15.5976 4.40529 15.006 4.0717L8.92822 0.40223C8.39038 0.0686415 7.69121 0.0686415 7.09957 0.40223L0.914337 4.0717C0.322708 4.40529 0 5.01685 0 5.68403V13.0786C0 13.7457 0.322708 14.3573 0.914337 14.6909L7.09957 18.3604C7.63742 18.694 8.33661 18.694 8.92822 18.3604L13.1234 15.8584L15.974 14.135L20.1692 11.633C20.7071 11.2994 21.4062 11.2994 21.998 11.633L25.2787 13.579C25.8166 13.9126 26.1932 14.5241 26.1932 15.1913V19.1387C26.1932 19.8059 25.8703 20.4174 25.2787 20.751L21.998 22.7526C21.4601 23.0862 20.7609 23.0862 20.1692 22.7526L16.8884 20.8067C16.3505 20.4731 15.974 19.8616 15.974 19.1943V16.6368L13.1234 18.3604V20.9178C13.1234 21.585 13.4462 22.1967 14.0378 22.5301L20.223 26.1997C20.7609 26.5333 21.4601 26.5333 22.0517 26.1997L28.2369 22.5301C28.7748 22.1967 29.1513 21.585 29.1513 20.9178V13.5233C29.1513 12.8562 28.8286 12.2446 28.2369 11.911L21.998 8.18594Z" fill="#7950DD"/>
<path d="M40.5085 24.082V17.943C41.1645 18.7813 42.3547 19.2497 43.7395 19.2497C47.262 19.2497 49.6427 16.7103 49.6427 12.8396C49.6427 8.96889 47.4562 6.4295 44.031 6.4295C42.4519 6.4295 41.2373 7.02121 40.5085 7.98272V6.62674H37.1318V24.082H40.5085ZM43.3265 16.2911C41.5046 16.2911 40.3142 14.9106 40.3142 12.8396C40.3142 10.744 41.5046 9.36336 43.3265 9.36336C45.0999 9.36336 46.3145 10.744 46.3145 12.8396C46.3145 14.9106 45.0999 16.2911 43.3265 16.2911Z" fill="white"/>
<path d="M57.31 19.2497C61.0755 19.2497 63.7719 16.5377 63.7719 12.8396C63.7719 9.14148 61.0755 6.4295 57.31 6.4295C53.5447 6.4295 50.8481 9.14148 50.8481 12.8396C50.8481 16.5377 53.5447 19.2497 57.31 19.2497ZM57.31 16.2911C55.4881 16.2911 54.2492 14.8859 54.2492 12.8396C54.2492 10.7686 55.4881 9.36336 57.31 9.36336C59.132 9.36336 60.371 10.7686 60.371 12.8396C60.371 14.8859 59.132 16.2911 57.31 16.2911Z" fill="white"/>
<path d="M69.1901 19.0524V1.22748H65.8135V19.0524H69.1901Z" fill="white"/>
<path d="M79.3404 6.62674L76.7897 14.6393L74.2147 6.62674H70.7651L75.2107 18.9539L73.413 24.082H76.6439L78.3687 19.0032L82.8139 6.62674H79.3404Z" fill="white"/>
<path d="M92.2977 7.85944C91.6176 6.99655 90.403 6.4295 88.921 6.4295C85.3501 6.4295 83.188 8.96889 83.188 12.8396C83.188 16.7103 85.3501 19.2497 88.9696 19.2497C90.403 19.2497 91.6904 18.7073 92.3221 17.7951V19.4223C92.3221 20.581 91.569 21.3947 90.5487 21.3947H84.9128V24.082H91.0831C93.8525 24.082 95.6987 22.3808 95.6987 19.7921V6.62674H92.2977V7.85944ZM89.5041 16.2911C87.7064 16.2911 86.5161 14.9353 86.5161 12.8396C86.5161 10.744 87.7064 9.36336 89.5041 9.36336C91.3261 9.36336 92.5165 10.744 92.5165 12.8396C92.5165 14.9353 91.3261 16.2911 89.5041 16.2911Z" fill="white"/>
<path d="M104.211 19.2497C107.976 19.2497 110.673 16.5377 110.673 12.8396C110.673 9.14148 107.976 6.4295 104.211 6.4295C100.445 6.4295 97.749 9.14148 97.749 12.8396C97.749 16.5377 100.445 19.2497 104.211 19.2497ZM104.211 16.2911C102.389 16.2911 101.15 14.8859 101.15 12.8396C101.15 10.7686 102.389 9.36336 104.211 9.36336C106.033 9.36336 107.272 10.7686 107.272 12.8396C107.272 14.8859 106.033 16.2911 104.211 16.2911Z" fill="white"/>
<path d="M115.921 19.0524V12.2479C115.921 10.6454 116.965 9.48663 118.447 9.48663C119.856 9.48663 120.804 10.5714 120.804 12.0753V19.0524H124.205V11.311C124.205 8.45115 122.407 6.4295 119.638 6.4295C117.961 6.4295 116.601 7.14447 115.921 8.35253V6.62674H112.52V19.0524H115.921Z" fill="white"/>
</g>
<path d="M98.5308 32.0566V24.8289H99.1009V31.5069H102.888V32.0566H98.5308ZM107.946 27.1092H108.475V32.0566H107.966V31.1099H107.946C107.525 31.775 106.901 32.1075 106.073 32.1075C105.387 32.1075 104.81 31.8802 104.342 31.4255C103.881 30.964 103.65 30.3634 103.65 29.6236C103.65 28.8975 103.874 28.2901 104.322 27.8015C104.777 27.306 105.353 27.0583 106.052 27.0583C106.439 27.0583 106.796 27.1499 107.121 27.3332C107.454 27.5096 107.722 27.7607 107.925 28.0865H107.946V27.1092ZM106.103 31.5985C106.612 31.5985 107.05 31.4153 107.416 31.0488C107.783 30.6755 107.966 30.2039 107.966 29.6338C107.966 29.0502 107.79 28.5615 107.437 28.1679C107.091 27.7743 106.65 27.5775 106.113 27.5775C105.577 27.5775 105.123 27.7675 104.749 28.1476C104.383 28.5276 104.2 29.023 104.2 29.6338C104.2 30.1971 104.376 30.6654 104.729 31.0386C105.089 31.4119 105.547 31.5985 106.103 31.5985ZM113.999 27.1092H114.529V31.8225C114.529 32.5215 114.332 33.078 113.938 33.492C113.545 33.9127 112.958 34.1231 112.177 34.1231C111.451 34.1231 110.779 33.9365 110.162 33.5632L110.304 33.0644C110.901 33.4309 111.522 33.6141 112.167 33.6141C112.764 33.6141 113.219 33.4546 113.531 33.1357C113.843 32.8235 113.999 32.4129 113.999 31.9039V31.059H113.979C113.545 31.663 112.93 31.965 112.136 31.965C111.458 31.965 110.888 31.741 110.426 31.2931C109.972 30.8452 109.744 30.2582 109.744 29.532C109.744 28.8194 109.965 28.229 110.406 27.7607C110.847 27.2925 111.417 27.0583 112.116 27.0583C112.903 27.0583 113.524 27.3705 113.979 27.9949H113.999V27.1092ZM112.157 31.456C112.706 31.456 113.151 31.2694 113.49 30.8961C113.836 30.5229 114.01 30.0512 114.01 29.4811C114.01 28.9178 113.833 28.4597 113.48 28.1068C113.127 27.7472 112.69 27.5673 112.167 27.5673C111.624 27.5673 111.176 27.7539 110.823 28.1272C110.47 28.4937 110.294 28.9552 110.294 29.5117C110.294 30.0885 110.474 30.5568 110.833 30.9165C111.193 31.2762 111.634 31.456 112.157 31.456ZM118.303 32.1075C117.556 32.1075 116.949 31.8666 116.481 31.3847C116.019 30.9029 115.788 30.3057 115.788 29.5931C115.788 28.8737 116.019 28.2731 116.481 27.7913C116.949 27.3026 117.556 27.0583 118.303 27.0583C119.022 27.0583 119.619 27.2959 120.094 27.7709C120.57 28.2392 120.807 28.8466 120.807 29.5931C120.807 30.3328 120.57 30.9368 120.094 31.4051C119.619 31.8734 119.022 32.1075 118.303 32.1075ZM118.293 31.5985C118.849 31.5985 119.314 31.4119 119.687 31.0386C120.067 30.6586 120.257 30.1767 120.257 29.5931C120.257 28.9959 120.067 28.5106 119.687 28.1374C119.314 27.7573 118.849 27.5673 118.293 27.5673C117.716 27.5673 117.244 27.7641 116.878 28.1577C116.518 28.5446 116.338 29.023 116.338 29.5931C116.338 30.1564 116.518 30.6314 116.878 31.0183C117.244 31.4051 117.716 31.5985 118.293 31.5985ZM123.574 32.1075C122.834 32.1075 122.2 31.8734 121.671 31.4051L121.976 30.9877C122.403 31.3949 122.936 31.5985 123.574 31.5985C123.934 31.5985 124.215 31.5171 124.419 31.3542C124.623 31.1913 124.724 30.9843 124.724 30.7332C124.724 30.455 124.541 30.231 124.175 30.0614C124.066 30.0139 123.795 29.9155 123.36 29.7662C122.879 29.6033 122.515 29.42 122.271 29.2164C122.027 29.0128 121.905 28.7176 121.905 28.3308C121.905 27.9643 122.047 27.6623 122.332 27.4248C122.624 27.1873 122.994 27.0685 123.442 27.0685C124.073 27.0685 124.623 27.2687 125.091 27.6691L124.786 28.0865C124.385 27.7404 123.92 27.5673 123.391 27.5673C123.126 27.5673 122.902 27.6352 122.719 27.7709C122.536 27.9066 122.444 28.0933 122.444 28.3308C122.444 28.4597 122.468 28.5717 122.515 28.6667C122.563 28.755 122.651 28.8364 122.78 28.911C122.909 28.9857 123.014 29.04 123.096 29.0739C123.177 29.1079 123.323 29.1622 123.533 29.2368C124.178 29.4675 124.585 29.6372 124.755 29.7458C125.108 29.9765 125.281 30.3159 125.274 30.7638C125.274 31.1438 125.125 31.4628 124.826 31.7207C124.528 31.9786 124.11 32.1075 123.574 32.1075Z" fill="white"/>
<defs>
<clipPath id="clip0_49_3762">
<rect width="124.703" height="26.2978" fill="white" transform="translate(0 0.152039)"/>
</clipPath>
</defs>
</svg>
