<svg viewBox="0 0 175 37" fill="none" xmlns="http://www.w3.org/2000/svg">
<g clip-path="url(#clip0_88_4725)">
<path d="M5.73365 24.1574C5.73365 26.2269 6.17853 27.8158 6.76002 28.7771C7.52242 30.0362 8.65955 30.5696 9.81883 30.5696C11.3141 30.5696 12.682 30.1907 15.318 26.4682C17.4299 23.4845 19.9182 19.2965 21.5926 16.6709L24.428 12.2228C26.3977 9.13354 28.6775 5.6994 31.2914 3.37165C33.4254 1.47176 35.7273 0.41626 38.044 0.41626C41.9335 0.41626 45.6385 2.71762 48.4739 7.03385C51.577 11.761 53.0833 17.7151 53.0833 23.8596C53.0833 27.5124 52.3782 30.1964 51.1783 32.3168C50.019 34.3675 47.7595 36.4163 43.9586 36.4163V30.5696C47.2131 30.5696 48.0253 27.5162 48.0253 24.0217C48.0253 19.042 46.8882 13.5157 44.3832 9.56705C42.6055 6.76621 40.3017 5.05479 37.7671 5.05479C35.0258 5.05479 32.8199 7.16579 30.3407 10.9298C29.0227 12.9296 27.6696 15.3666 26.1503 18.1166L24.4778 21.1417C21.1181 27.224 20.2671 28.6094 18.5873 30.8956C15.6429 34.899 13.1287 36.4163 9.81883 36.4163C5.89241 36.4163 3.40955 34.6803 1.87184 32.0642C0.616561 29.9325 0 27.1354 0 23.9482L5.73365 24.1574Z" fill="#0081FB"/>
<path d="M4.52081 7.44663C7.1495 3.30945 10.943 0.41626 15.294 0.41626C17.8138 0.41626 20.3188 1.17773 22.9346 3.35846C25.7959 5.74275 28.8454 9.66882 32.65 16.1394L34.0142 18.4615C37.3075 24.0632 39.1811 26.9451 40.2777 28.304C41.688 30.0494 42.6756 30.5696 43.9586 30.5696C47.2131 30.5696 48.0253 27.5162 48.0253 24.0217L53.0833 23.8596C53.0833 27.5124 52.3781 30.1964 51.1782 32.3168C50.019 34.3675 47.7595 36.4163 43.9586 36.4163C41.5957 36.4163 39.5023 35.8923 37.1875 33.6625C35.4079 31.9511 33.3275 28.9109 31.727 26.1779L26.9662 18.0581C24.5775 13.9832 22.3863 10.9448 21.1181 9.56893C19.7539 8.08935 18.0002 6.30254 15.2017 6.30254C12.9367 6.30254 11.0132 7.92537 9.40346 10.4077L4.52081 7.44663Z" fill="url(#paint0_linear_88_4725)"/>
<path d="M15.2017 6.30254C12.9367 6.30254 11.0132 7.92537 9.40348 10.4077C7.12737 13.9153 5.73365 19.14 5.73365 24.1574C5.73365 26.2269 6.17853 27.8158 6.76002 28.7771L1.87184 32.0642C0.616561 29.9325 0 27.1354 0 23.9482C0 18.1524 1.55802 12.1115 4.52083 7.44663C7.14953 3.30945 10.943 0.41626 15.294 0.41626L15.2017 6.30254Z" fill="url(#paint1_linear_88_4725)"/>
<path d="M64.2294 1.55469H70.8621L82.1392 22.3857L93.4182 1.55469H99.9069V35.783H94.4963V9.55008L84.6055 27.7159H79.529L69.64 9.55008V35.783H64.2294V1.55469ZM116.86 14.3168C112.98 14.3168 110.643 17.2986 110.084 20.9909H123.253C122.982 17.1874 120.833 14.3168 116.86 14.3168ZM104.719 23.0944C104.719 15.3252 109.637 9.67071 116.955 9.67071C124.152 9.67071 128.45 15.2535 128.45 23.509V25.0263H110.084C110.736 29.0429 113.346 31.7495 117.555 31.7495C120.912 31.7495 123.011 30.7034 125.001 28.7903L127.876 32.3846C125.167 34.9273 121.723 36.3936 117.363 36.3936C109.441 36.3936 104.719 30.496 104.719 23.0944ZM135.01 14.8068H130.03V10.2833H135.01V2.80244H140.231V10.2833H147.797V14.8068H140.231V26.2722C140.231 30.1869 141.456 31.5779 144.469 31.5779C145.844 31.5779 146.633 31.4573 147.797 31.2594V35.734C146.347 36.1524 144.962 36.3446 143.463 36.3446C137.827 36.3446 135.01 33.2008 135.01 26.9074V14.8068ZM169.78 19.206C168.731 16.5032 166.392 14.5128 162.955 14.5128C158.488 14.5128 155.628 17.749 155.628 23.0209C155.628 28.1608 158.261 31.5534 162.741 31.5534C166.263 31.5534 168.777 29.4613 169.78 26.8584V19.206ZM175 35.783H169.876V32.2131C168.443 34.3147 165.837 36.3936 161.615 36.3936C154.825 36.3936 150.288 30.5903 150.288 23.0209C150.288 15.3798 154.934 9.67071 161.903 9.67071C165.347 9.67071 168.05 11.0768 169.876 13.5591V10.2833H175V35.783Z" fill="white"/>
</g>
<defs>
<linearGradient id="paint0_linear_88_4725" x1="11.2605" y1="22.4686" x2="47.815" y2="24.2768" gradientUnits="userSpaceOnUse">
<stop stop-color="#0064E1"/>
<stop offset="0.4" stop-color="#0064E1"/>
<stop offset="0.83" stop-color="#0073EE"/>
<stop offset="1" stop-color="#0082FB"/>
</linearGradient>
<linearGradient id="paint1_linear_88_4725" x1="8.30696" y1="26.6152" x2="8.30696" y2="12.8561" gradientUnits="userSpaceOnUse">
<stop stop-color="#0082FB"/>
<stop offset="1" stop-color="#0064E0"/>
</linearGradient>
<clipPath id="clip0_88_4725">
<rect width="175" height="36" fill="white" transform="translate(0 0.41626)"/>
</clipPath>
</defs>
</svg>
