<svg width="35" height="35" viewBox="0 0 35 35" fill="none" xmlns="http://www.w3.org/2000/svg">
<rect width="35" height="35" rx="10" fill="#00ACEE"/>
<g clip-path="url(#clip0_47_3367)">
<path d="M27.2025 11.6141C26.5067 11.9225 25.7592 12.1308 24.9733 12.225C25.7842 11.7398 26.3908 10.9762 26.68 10.0766C25.9182 10.5291 25.0845 10.8476 24.215 11.0183C23.6303 10.394 22.8559 9.98025 22.0119 9.84121C21.168 9.70217 20.3018 9.84564 19.5477 10.2494C18.7937 10.6531 18.194 11.2945 17.8418 12.0739C17.4896 12.8534 17.4046 13.7273 17.6 14.56C16.0564 14.4825 14.5464 14.0813 13.1679 13.3824C11.7894 12.6835 10.5732 11.7026 9.59834 10.5033C9.265 11.0783 9.07334 11.745 9.07334 12.455C9.07297 13.0941 9.23037 13.7235 9.53157 14.2873C9.83277 14.851 10.2685 15.3317 10.8 15.6866C10.1836 15.667 9.58073 15.5005 9.04167 15.2008V15.2508C9.04161 16.1473 9.3517 17.0161 9.91932 17.71C10.4869 18.4038 11.2771 18.8799 12.1558 19.0575C11.584 19.2122 10.9845 19.235 10.4025 19.1242C10.6504 19.8955 11.1333 20.57 11.7836 21.0533C12.434 21.5365 13.2191 21.8043 14.0292 21.8192C12.654 22.8987 10.9557 23.4842 9.2075 23.4816C8.89782 23.4817 8.5884 23.4636 8.28084 23.4275C10.0554 24.5685 12.1211 25.174 14.2308 25.1716C21.3725 25.1716 25.2767 19.2566 25.2767 14.1266C25.2767 13.96 25.2725 13.7916 25.265 13.625C26.0244 13.0758 26.6799 12.3957 27.2008 11.6166L27.2025 11.6141Z" fill="white"/>
</g>
<defs>
<clipPath id="clip0_47_3367">
<rect width="20" height="20" fill="white" transform="translate(7.5 7.5)"/>
</clipPath>
</defs>
</svg>
