<svg width="16" height="16" viewBox="0 0 16 16" fill="none" xmlns="http://www.w3.org/2000/svg">
<g clip-path="url(#clip0_220_1305)">
<path d="M15.3216 3.38708C14.802 3.61735 14.2437 3.77294 13.6568 3.84326C14.2624 3.48092 14.7154 2.91064 14.9314 2.23883C14.3625 2.57676 13.7398 2.81463 13.0905 2.94209C12.6538 2.47586 12.0755 2.16684 11.4452 2.063C10.8149 1.95915 10.168 2.0663 9.60482 2.36781C9.04168 2.66932 8.59383 3.14832 8.33081 3.73043C8.06779 4.31255 8.00431 4.96522 8.15023 5.58711C6.99743 5.52922 5.86968 5.22959 4.84018 4.70766C3.81067 4.18572 2.90242 3.45315 2.17436 2.55747C1.92542 2.9869 1.78228 3.48479 1.78228 4.01503C1.782 4.49238 1.89955 4.96241 2.1245 5.38343C2.34944 5.80445 2.67484 6.16343 3.0718 6.42853C2.61143 6.41388 2.16121 6.28949 1.75863 6.0657V6.10304C1.75858 6.77253 1.99016 7.42143 2.41408 7.93961C2.838 8.4578 3.42814 8.81336 4.08437 8.94596C3.6573 9.06155 3.20955 9.07857 2.77493 8.99575C2.96008 9.57181 3.32074 10.0756 3.80641 10.4365C4.29208 10.7974 4.87845 10.9974 5.48343 11.0085C4.45644 11.8147 3.18811 12.252 1.88247 12.2501C1.6512 12.2501 1.42011 12.2366 1.19041 12.2096C2.51571 13.0617 4.05845 13.5139 5.63404 13.5122C10.9676 13.5122 13.8834 9.09471 13.8834 5.26348C13.8834 5.13901 13.8803 5.01329 13.8747 4.88882C14.4418 4.47867 14.9314 3.97078 15.3204 3.38894L15.3216 3.38708V3.38708Z" fill="#A19DAB"/>
</g>
<defs>
<clipPath id="clip0_220_1305">
<rect width="14.9366" height="14.9366" fill="white" transform="translate(0.607254 0.314453)"/>
</clipPath>
</defs>
</svg>
